<svg xmlns="http://www.w3.org/2000/svg" xmlns:xlink="http://www.w3.org/1999/xlink" width="480" zoomAndPan="magnify" viewBox="0 0 360 503.999982" height="672" preserveAspectRatio="xMidYMid meet" version="1.0"><defs><g/></defs><g fill="#ffe100" fill-opacity="1"><g transform="translate(12.305643, 430.353643)"><g><path d="M 269.3125 -88.9375 L 272.6875 0 L 180.8125 0 L 104.109375 -145.828125 L 99.046875 -145.828125 L 98.625 -98.625 L 102 0 L 25.28125 0 L 29.5 -80.078125 L 25.28125 -272.6875 L 117.171875 -272.6875 L 193.875 -126.859375 L 198.9375 -126.859375 L 196.40625 -269.734375 L 273.953125 -274.375 Z M 269.3125 -88.9375 "/></g></g></g><g fill="#0a5680" fill-opacity="1"><g transform="translate(45.832411, 430.353643)"><g><path d="M 269.3125 -88.9375 L 272.6875 0 L 180.8125 0 L 104.109375 -145.828125 L 99.046875 -145.828125 L 98.625 -98.625 L 102 0 L 25.28125 0 L 29.5 -80.078125 L 25.28125 -272.6875 L 117.171875 -272.6875 L 193.875 -126.859375 L 198.9375 -126.859375 L 196.40625 -269.734375 L 273.953125 -274.375 Z M 269.3125 -88.9375 "/></g></g></g></svg>